PathFileType	4	(x/y/z)	S02_PSF_T05
DataRate	CameraRate	NumFrames	NumMarkers	Units	OrigDataRate	OrigDataStartFrame	OrigNumFrames
240	240	4	51	mm	240	257	410
Frame#	Time	Sternum			R.Acromium			L.Acromium			Top.Head			R.ASIS			L.ASIS			R.PSIS			L.PSIS			R.Great.Tro			L.Great.Tro			R.Iliac.Crest			L.Iliac.Crest			V.Sacral			R.Thigh.Upper.Post			R.Thigh.Lower.Ant			R.Thigh.Lower.Post			R.Thigh.Upper.Ant			R.Knee.Lat			R.Knee.Med			R.Shank.Upper.Post			R.Shank.Lower.Ant			R.Shank.Lower.Post			R.Shank.Upper.Ant			R.Ankle.Lat			R.Ankle.Med			R.Heel.Upper			R.Heel.Med			R.Heel.Lat			R.Toe.Lat			R.Toe.Med			R.Toe.Tip			L.Thigh.Upper.Post			L.Thigh.Lower.Ant			L.Thigh.Lower.Post			L.Thigh.Upper.Ant			L.Knee.Lat			L.Knee.Med			L.Shank.Upper.Post			L.Shank.Lower.Ant			L.Shank.Lower.Post			L.Shank.Upper.Ant			L.Ankle.Lat			L.Ankle.Med			L.Heel.Upper			L.Heel.Med			L.Heel.Lat			L.Toe.Lat			L.Toe.Med			L.Toe.Tip			Cervical.Spine			Back			
		X1	Y1	Z1	X2	Y2	Z2	X3	Y3	Z3	X4	Y4	Z4	X5	Y5	Z5	X6	Y6	Z6	X7	Y7	Z7	X8	Y8	Z8	X9	Y9	Z9	X10	Y10	Z10	X11	Y11	Z11	X12	Y12	Z12	X13	Y13	Z13	X14	Y14	Z14	X15	Y15	Z15	X16	Y16	Z16	X17	Y17	Z17	X18	Y18	Z18	X19	Y19	Z19	X20	Y20	Z20	X21	Y21	Z21	X22	Y22	Z22	X23	Y23	Z23	X24	Y24	Z24	X25	Y25	Z25	X26	Y26	Z26	X27	Y27	Z27	X28	Y28	Z28	X29	Y29	Z29	X30	Y30	Z30	X31	Y31	Z31	X32	Y32	Z32	X33	Y33	Z33	X34	Y34	Z34	X35	Y35	Z35	X36	Y36	Z36	X37	Y37	Z37	X38	Y38	Z38	X39	Y39	Z39	X40	Y40	Z40	X41	Y41	Z41	X42	Y42	Z42	X43	Y43	Z43	X44	Y44	Z44	X45	Y45	Z45	X46	Y46	Z46	X47	Y47	Z47	X48	Y48	Z48	X49	Y49	Z49	X50	Y50	Z50	X51	Y51	Z51	

257	1.0667	-107.35	1068	370.19	-196.49	1307.6	516.41	-226.69	1312.2	227.13	-166.59	1595.9	365.15	-149.13	906.13	485.35	-121.57	900.86	275.94	-351.72	948.85	402.35	-348.65	952.81	328.82	-251.88	793.03	568.4	-219.16	794.92	175.46	-260.32	946.85	531.91	-238.87	946.61	195.3	-378.13	907.1	357.26	-304.48	594.14	539.41	-274.3	504.28	499.94	-345	516.12	515.14	-237.92	583.69	522.07	-356.44	436.64	496.47	-366.13	432.59	351.37	-501.02	267.74	468.36	-456.9	168.21	446.63	-518.92	197.28	455.38	-436.34	231.89	468.17	-531.79	100.18	435.92	-522.75	118.92	352.05	-599.52	90.957	380.57	-588.96	58.846	351.81	-597.42	58.299	415.53	-436.61	36.588	451.97	-407.28	34.288	344.39	-356.85	57.379	398.33	-165.1	572.71	201.41	-63.7	530.83	214.42	-131.31	491.88	227.63	-106.23	612.74	189.36	-51.146	452.73	225.27	-55.843	451.17	370.81	-60.997	264.01	239.06	40.926	217.1	241.33	-28.302	198.74	255.24	1.2607	281.24	226.48	54.694	103.95	259.24	76.509	116.77	338.6	20.348	55.155	302.76	37.606	41.284	338.75	34.521	26.063	279.01	189.36	73.417	234.24	206.34	114.32	334.24	253.79	143.58	280.02	-285.72	1372.6	383.92	-367.38	1121	392.13
258	1.0708	-101.48	1066.6	369.96	-190.61	1306.6	515.67	-220.59	1311	226.42	-161.22	1595	364.25	-143.54	905.03	485.58	-115.52	899.54	275.95	-346.04	947.7	401.82	-342.86	951.67	328.33	-246.64	792.04	568.23	-213.07	794.12	175.35	-255.04	945.73	531.66	-232.74	945.36	194.92	-372.37	905.96	356.73	-299.6	593.36	539.33	-269.46	503.33	500.11	-340.19	515.36	514.98	-233.07	582.7	522.2	-351.83	435.87	496.4	-360.91	431.57	351.33	-498.08	268.53	468.44	-455.28	168.43	446.82	-516.88	198.27	455.65	-433.9	231.91	468.27	-530.98	101.2	436.27	-521.8	120.01	352.39	-598.85	92.581	380.95	-588.56	60.523	352.03	-597.04	59.711	415.74	-436.49	36.457	451.97	-407.22	34.231	344.42	-356.78	57.173	398.27	-158.7	571.98	201.52	-57.224	530.32	214.65	-124.77	491.22	227.78	-99.913	612.13	189.5	-44.679	452.07	225.54	-49.157	450.73	370.81	-55.523	263.43	239.25	45.996	215.83	242.28	-23.442	197.94	255.61	6.9106	280.22	227.24	58.771	103.06	260.11	80.262	115.32	339.68	23.758	55.034	303.33	40.68	40.619	339.28	37.634	25.97	279.41	193.13	71.543	235.63	209.96	111.6	335.97	258.01	140.59	282.16	-279.89	1371.7	383.15	-361.55	1120.1	391.57
259	1.075	-95.581	1065.2	369.73	-184.71	1305.6	514.92	-214.45	1309.8	225.69	-155.84	1594.1	363.33	-137.91	904	485.8	-109.45	898.32	275.94	-340.33	946.59	401.33	-337.06	950.58	327.87	-241.35	791.07	568.05	-206.96	793.42	175.23	-249.71	944.66	531.41	-226.6	944.2	194.55	-366.57	904.85	356.23	-294.63	592.6	539.21	-264.49	502.4	500.28	-335.26	514.59	514.81	-228.1	581.73	522.33	-347.07	435.12	496.33	-355.55	430.53	351.3	-495.02	269.38	468.53	-453.58	168.72	447.03	-514.75	199.34	455.92	-431.38	231.99	468.38	-530.09	102.3	436.65	-520.77	121.19	352.78	-598.09	94.368	381.37	-588.1	62.366	352.27	-596.6	61.28	415.98	-436.36	36.329	451.97	-407.17	34.177	344.46	-356.7	56.964	398.21	-152.29	571.31	201.64	-50.742	529.87	214.86	-118.21	490.62	227.95	-93.591	611.58	189.63	-38.192	451.47	225.82	-42.449	450.37	370.77	-50.185	262.93	239.43	50.867	214.53	243.27	-18.801	197.2	255.99	12.44	279.22	228.04	62.476	102.17	261	83.669	113.81	340.77	26.721	55.015	303.92	43.287	39.994	339.8	40.237	25.977	279.79	196.45	69.491	236.99	213.22	108.57	337.69	261.9	137.24	284.3	-274.04	1370.9	382.35	-355.68	1119.1	390.99
260	1.0792	-89.655	1064	369.49	-178.82	1304.7	514.15	-208.27	1308.7	224.93	-150.45	1593.4	362.4	-132.22	903.04	485.99	-103.35	897.22	275.93	-334.58	945.53	400.87	-331.25	949.56	327.45	-235.99	790.13	567.86	-200.82	792.84	175.09	-244.3	943.65	531.18	-220.47	943.13	194.21	-360.73	903.78	355.77	-289.55	591.85	539.07	-259.38	501.5	500.44	-330.2	513.84	514.63	-223.01	580.8	522.45	-342.18	434.37	496.26	-350.06	429.5	351.26	-491.84	270.31	468.62	-451.81	169.08	447.27	-512.51	200.49	456.21	-428.76	232.13	468.49	-529.11	103.49	437.07	-519.63	122.46	353.21	-597.21	96.327	381.82	-587.56	64.387	352.54	-596.08	63.018	416.24	-436.22	36.206	451.97	-407.12	34.128	344.5	-356.62	56.754	398.15	-145.89	570.71	201.76	-44.26	529.48	215.06	-111.66	490.1	228.13	-87.268	611.09	189.73	-31.687	450.94	226.09	-35.741	450.1	370.72	-44.972	262.52	239.63	55.559	213.22	244.28	-14.353	196.51	256.38	17.858	278.24	228.86	65.848	101.31	261.92	86.766	112.27	341.89	29.288	55.096	304.53	45.478	39.418	340.32	42.389	26.085	280.16	199.34	67.301	238.3	216.16	105.3	339.38	265.49	133.57	286.41	-268.18	1370.1	381.52	-349.77	1118.3	390.39
